<svg role="img" xmlns="http://www.w3.org/2000/svg" viewBox="0 0 1000 1000"><title>נתיב האומץ, סבב 3, נתיב על הרכס, לרקע כהה</title><path fill="#F6EFE1" d="M70 924.5L500 75.5L500 246.7L485.8 246.7L483 279.6L500 279.6L500 324.5L479.3 324.5L473 400.8L500 400.8L500 532L462.1 532L433.4 876.4L500 876.4L500 924.5Z"/><path fill="#CFD9E4" d="M500 924.5L500 876.4L566.6 876.4L537.9 532L500 532L500 400.8L527 400.8L520.7 324.5L500 324.5L500 279.6L517 279.6L514.2 246.7L500 246.7L500 75.5L930 924.5Z"/><path fill="#D9AD69" d="M433.4 876.4L462.1 532L537.9 532L566.6 876.4ZM473 400.8L479.3 324.5L520.7 324.5L527 400.8ZM483 279.6L485.8 246.7L514.2 246.7L517 279.6Z"/></svg>
