<svg role="img" xmlns="http://www.w3.org/2000/svg" viewBox="0 0 3863 1013"><title>נתיב האומץ, סבב 3, נתיב</title><path fill="#0A2A4B" d="M2943 909L3373 60L3803 909ZM3306.5 860.9L3439.6 860.9L3411 516.4L3335.1 516.4ZM3346 385.3L3400.1 385.3L3393.7 309L3352.3 309ZM3356.1 264.1L3390 264.1L3387.3 231.2L3358.8 231.2Z"/><path fill="#CA984D" d="M3306.5 860.9L3335.1 516.4L3411 516.4L3439.6 860.9ZM3346 385.3L3352.3 309L3393.7 309L3400.1 385.3ZM3356.1 264.1L3358.8 231.2L3387.3 231.2L3390 264.1Z"/><path fill="#0A2A4B" d="M516.9 660.7L525.8 586.2Q564.7 594.5 584.1 585.9Q603.6 577.3 610.5 555.1Q617.5 532.8 617.5 501.2Q617.5 470 612.2 450Q606.9 430 595.5 420.3Q584.1 410.6 565.2 410.6Q554.1 410.6 543.8 415Q533.5 419.5 526.3 428.6Q519.1 437.8 517.4 452.8L485.7 660.1L384.6 660.1L421.8 447.3L376.8 338.3L481.8 338.3L500.6 398.6Q511.7 366.7 532.1 350.8Q556.9 331.6 587.4 331.6Q619.7 331.6 643.3 342.8Q666.9 353.9 682.5 375.6Q698.1 397.2 705.6 428.9Q713.1 460.6 713.1 501.2Q713.1 560.6 690 601.8Q666.9 642.9 623 659.3Q579.1 675.7 516.9 660.7ZM2150.9 670.7L2142.6 602.9Q2163.7 600.1 2173.1 595.1Q2182.6 590.1 2185.4 580.1Q2188.1 570.1 2188.1 552.3L2188.1 338.3L2373.8 338.3Q2401.6 338.3 2423.5 348.9Q2445.5 359.4 2458.2 382.5Q2471 405.6 2471 443.4L2471 660.1L2369.9 660.1L2369.9 437.8Q2369.9 425 2363.8 418.9Q2357.6 412.8 2344.9 412.8L2289.3 412.8L2289.3 539Q2289.3 586.8 2274.6 614Q2259.8 641.2 2229.3 653.7Q2198.7 666.2 2150.9 670.7ZM1232.2 660.1L1125.5 660.1L1033.2 513.9L989.3 660.1L893.7 660.1L955.9 469.5L973.7 423.9L922 338.3L1023.2 338.3L1064.9 407.2L1097.7 458.4L1113.8 405L1129.9 338.3L1225.5 338.3L1156.6 545.6ZM192.3 771.3L60 338.3L155.6 338.3L197.3 474.8L256.8 338.3L351.8 338.3L235.2 598.8L287.9 771.3ZM1700.7 660.1L1700.7 585.6L1840.2 585.6L1840.2 437.8Q1840.2 425 1834.1 418.9Q1828 412.8 1815.2 412.8L1700.7 412.8L1700.7 338.3L1844.1 338.3Q1871.9 338.3 1893.8 348.9Q1915.8 359.4 1928.6 382.5Q1941.4 405.6 1941.4 443.4L1941.4 585.6L1976.9 585.6L1976.9 660.1ZM1452.3 660.1L1452.3 437.8Q1452.3 425 1446.1 418.9Q1440 412.8 1427.3 412.8L1273.9 412.8L1273.9 338.3L1456.2 338.3Q1483.9 338.3 1505.9 348.9Q1527.9 359.4 1540.6 382.5Q1553.4 405.6 1553.4 443.4L1553.4 660.1ZM2514.4 660.1L2514.4 585.6L2587.2 585.6L2587.2 438.9Q2587.2 421.1 2581.1 415.9Q2575 410.6 2563.8 409.5L2523.8 404.5L2536.1 331.1L2617.8 341.1Q2652.2 345 2670.3 371.1Q2688.3 397.2 2688.3 436.1L2688.3 660.1ZM759.2 660.1L759.2 403.3L753.1 338.3L853.7 338.3L860.3 403.3L860.3 660.1ZM2019.2 543.4L2019.2 403.3L2013.1 338.3L2113.7 338.3L2120.3 403.3L2120.3 491.7L2119.8 526.7ZM1269.4 660.1L1269.4 507.3L1283.3 470L1370.6 470L1370.6 660.1Z"/><path fill="#0A2A4B" d="M2046.7 911.2L2034.5 806L2031.4 782L2099.7 782Q2121.7 782 2133.6 794.5Q2145.4 806.9 2146.1 828.3L2146.3 835.6Q2147 856.3 2140.2 870.4Q2133.4 884.5 2120.2 893.2Q2107 901.9 2088.3 906.2Q2069.6 910.5 2046.7 911.2ZM1641.7 909.2L1644.6 885.2Q1661 888.7 1670.1 884.9Q1679.2 881 1682.9 870.5Q1686.6 860.1 1686.4 844.5Q1686.4 830.5 1683.5 821.8Q1680.6 813.2 1675.1 809.2Q1669.7 805.2 1661.5 805.2Q1655.5 805.2 1650.6 807.7Q1645.7 810.3 1642.6 814.8Q1639.7 819 1638.7 824.8L1638.8 824.9L1625 909L1593 909L1608.3 823.4L1590.5 782L1623.9 782L1632.7 807.4Q1637.2 794.2 1645.8 787.7Q1655.9 780 1668.1 780Q1679.9 780 1688.9 783.9Q1697.9 787.8 1704.1 795.8Q1710.4 803.8 1713.6 816Q1716.8 828.3 1716.8 844.5Q1717 869 1708.3 885.4Q1699.5 901.9 1682.6 908.3Q1665.7 914.8 1641.7 909.2ZM1244.4 911.2L1229.5 782L1261.7 782L1272.6 882.7Q1284.6 881.6 1292.9 878Q1301.1 874.3 1306 868.4Q1310.9 862.5 1313 854.5Q1315.1 846.5 1314.9 836.5L1314.9 829.6Q1314.9 823.4 1312.6 818Q1310.4 812.7 1305.5 809Q1300.6 805.4 1293.1 804.9L1282.2 804.3L1284.6 779.6L1298.2 780.3Q1311.3 780.9 1321.9 786Q1332.4 791.1 1339 801Q1345.5 810.9 1346 826.3L1346.2 832.5Q1346.9 852.7 1340.1 867.3Q1333.3 881.9 1319.9 891.2Q1306.4 900.5 1287.3 905.3Q1268.2 910.1 1244.4 911.2ZM2575.9 917.4L2571.4 892.5L2606.7 885.8L2581.2 782L2613.2 782L2635.7 878.8Q2638.3 877.5 2640.4 876Q2647 871.2 2650.4 863.3Q2653.9 855.4 2655.1 843.9Q2656.3 832.5 2656.4 817.2Q2656.6 801.8 2656.6 782L2688.3 782Q2688.3 803.8 2687.6 821.7Q2686.8 839.6 2683.8 854Q2680.8 868.3 2673.9 879.1Q2667 889.9 2654.8 897.2Q2642.5 904.5 2623.4 908.3ZM1850.2 909L1890 806L1825.5 806L1825.5 782L1825.5 749.6L1854.4 749.6L1854.4 782L1922.2 782L1922.2 808.5L1882.2 909ZM1128.6 909.2L1126.1 885.2Q1133.2 884.5 1138.8 882.2Q1144.4 879.9 1148.4 875.3Q1152.4 870.7 1154.6 863.2Q1156.8 855.6 1157.5 844.7L1160.4 806L1083 806L1083 782L1194.8 782L1193.7 802.7L1191.3 836.3Q1190.6 851.4 1186.9 864.5Q1183.3 877.6 1176.1 887.6Q1169 897.6 1157.4 903.3Q1145.7 909 1128.6 909.2ZM2295.5 909L2295.5 832.1Q2295.5 823.4 2297.2 816.7Q2298.8 810 2301.7 806L2244.8 806L2244.8 782L2349.1 782L2349.1 806L2331.7 806Q2329.3 811.6 2328.4 818.8Q2327.5 826 2327.5 832.1L2327.5 909ZM1011.4 909L1011.4 822.3Q1011.4 813.6 1007.5 809.8Q1003.6 806 996.5 806L938.5 806L938.5 782L1005.2 782Q1016.3 782 1025 786.3Q1033.6 790.5 1038.6 799.6Q1043.6 808.7 1043.6 823.8L1043.6 909ZM1445.6 953.4L1445.6 808L1442.9 782L1474.9 782L1477.6 808L1477.6 953.4ZM1756.8 909L1756.8 808L1754.2 782L1786.2 782L1788.9 808L1788.9 909ZM2507.8 909L2507.8 808L2505.2 782L2537.2 782L2539.8 808L2539.8 909ZM1960.7 909L1960.7 808L1958 782L1990 782L1992.7 808L1992.7 909ZM1521 909L1521 808L1518.3 782L1550.3 782L1553 808L1553 909ZM1081.2 953.4L1081.2 846.9L1085.7 831.6L1113.5 831.6L1113.5 953.4ZM2066.5 806L2074.8 882.7Q2084.3 881.9 2091.3 879.7Q2098.3 877.6 2103 873.7Q2107.7 869.8 2110.3 864.4Q2113 859 2114 851.6Q2115 844.3 2114.5 834.9L2114.5 828.3Q2114.5 821.4 2112.4 816.5Q2110.3 811.6 2106.4 808.8Q2102.5 806 2097.2 806L2066.5 806ZM937.2 909L937.2 848.3L941.6 833.4L969.4 833.4L969.4 909ZM2402.7 799.8L2386.4 792.7L2406 752.7L2426.5 762ZM2441.4 799.8L2425.3 792.7L2444.7 752.7L2465.1 762Z"/></svg>
