<svg xmlns="http://www.w3.org/2000/svg" viewBox="0 0 24 24" width="24" height="24"><title>יוטיוב</title><path fill="currentColor" d="M2.05 12Q2.05 6.58 4.33 5.7Q4.34 5.7 4.35 5.69Q7.04 4.75 12 4.75Q16.96 4.75 19.65 5.69Q19.66 5.7 19.67 5.7Q21.95 6.58 21.95 12Q21.95 17.42 19.67 18.3Q19.66 18.3 19.65 18.31Q16.96 19.25 12 19.25Q7.04 19.25 4.35 18.31Q4.34 18.3 4.33 18.3Q2.05 17.42 2.05 12ZM3.55 12Q3.55 16.38 4.86 16.9Q7.31 17.75 12 17.75Q16.69 17.75 19.14 16.9Q20.45 16.38 20.45 12Q20.45 7.62 19.14 7.1Q16.69 6.25 12 6.25Q7.31 6.25 4.86 7.1Q3.55 7.62 3.55 12Z M15.1 12 10.1 14.5V9.5Z"/></svg>
