<svg xmlns="http://www.w3.org/2000/svg" viewBox="0 0 4914.96 1807.51" role="img" aria-label="נתיב האומץ · עו״ד סולומון טקה"><title>נתיב האומץ · עו״ד סולומון טקה</title><path fill="#CFD9E4" d="M60 1235.36L404.09 681.71L471.24 757.17L815.53 60L1167.9 588.29L1226.77 530.06L1571.23 1235.36L797.2 1235.36C775.09 1218.42 754.17 1199.89 734.23 1180.47C709.67 1156.55 683.39 1129.51 664.86 1100.59C655.08 1085.33 645.83 1067.97 644.86 1049.51C644.02 1033.54 649.85 1017.69 656.53 1003.47C668.86 977.2 686.05 953.3 704.16 930.73C753.03 869.81 811.04 816.91 861.5 757.35C893.57 719.48 924.02 678.31 939.68 630.67C960.44 567.5 951.72 499.27 936.79 435.85C920.72 367.66 896 299.4 870.56 234.14C865.73 221.77 860.86 209.39 855.7 197.15C847.38 177.39 838.27 157.93 831.25 137.65C826.89 125.06 824.77 112.23 821.74 99.31C820.07 92.18 819.52 89.81 819.52 89.81C819.52 89.81 819.56 90 819.64 90.33C820.35 93.48 823.9 109.13 818.82 89.52C818.66 91.24 818.12 92.9 817.9 94.61C816.59 104.99 815.98 119.92 816.53 130.33C819.19 180.79 839.19 239.24 854.87 287.29C873.19 343.46 890.44 400.23 900.39 458.57C909.67 512.97 913.59 571.27 891.24 623.13C872.04 667.68 837.69 704.83 804.25 739.17C747.74 797.19 684.74 849.53 634.12 913.06C598.82 957.35 565.05 1011.73 573.65 1070.82C576.66 1091.5 584.31 1111.29 593.9 1129.75C612.33 1165.22 638.35 1196.31 664.84 1225.99C667.66 1229.16 670.49 1232.28 673.35 1235.36Z"/><path fill="#F6F8FB" d="M815.53 60L1167.9 588.29L1226.77 530.06L1571.23 1235.36L1234.99 1235.36Z"/><path fill="#D9AD69" d="M818.82 89.52C821.08 104.25 822.48 119.25 826.34 133.67C836.03 169.85 854.29 210.09 867.55 245.8C892.66 313.43 917.54 381.65 932.33 452.41C945.49 515.35 950.69 581.97 925.78 642.78C908.01 686.14 878.26 723.7 847.7 758.72C796.45 817.44 738.13 870.01 689.85 931.32C665.63 962.07 629.74 1012.35 633.41 1053.37C635 1071.17 643.01 1087.89 652.12 1103C671.09 1134.47 698.99 1163.64 725.09 1189.38C758.91 1222.75 795.75 1253.25 836.41 1277.93C895.39 1313.73 960.97 1337.2 1027.66 1353.96C1115.25 1375.96 1205.42 1387.23 1295.33 1394.27C1396.37 1402.18 1497.54 1403.46 1598.83 1403.85C1655.52 1404.07 1712.21 1404.31 1768.89 1404.56C2374.11 1407.29 2979.31 1412.1 3584.52 1416.15C4007.99 1418.99 4431.48 1421.79 4854.96 1421.79L4854.96 1425.79C4423.14 1425.79 3991.32 1428.69 3559.51 1431.6C2945.97 1435.73 2332.43 1440.59 1718.88 1443.24C1652.15 1443.53 1585.43 1444 1518.71 1444C1466.76 1444 1414.81 1443.5 1362.89 1441.88C1253.39 1438.48 1143.16 1431.24 1035.59 1409.47C945.63 1391.27 857 1361.66 780.26 1310.27C740.7 1283.78 705.94 1252.64 674.1 1217.33C648.15 1188.56 622.57 1158.43 604.48 1123.97C594.48 1104.9 586.62 1084.28 584.51 1062.72C579.14 1007.99 613.29 956.4 646.09 915.63C695.67 853.99 756.59 802.58 811.33 745.75C845.37 710.41 880.11 672.17 899.46 626.44C923.42 569.86 917.66 506.26 906.45 447.38C896.25 393.76 880.26 341.46 863.19 289.69C847.56 242.27 826.63 183.95 820.25 134.87C818.79 123.6 818.82 112.21 818.84 100.84C818.85 97.06 818.86 93.29 818.82 89.52Z"/><path fill="#F6EFE1" d="M2329.3 1236L2339.64 1149.38Q2384.89 1159.07 2407.52 1149.05Q2430.14 1139.04 2438.22 1113.18Q2446.3 1087.32 2446.3 1050.47Q2446.3 1014.27 2440.16 991Q2434.02 967.73 2420.77 956.41Q2407.52 945.1 2385.54 945.1Q2372.61 945.1 2360.65 950.27Q2348.69 955.44 2340.29 966.11Q2331.88 976.78 2329.94 994.23L2293.1 1235.36L2175.44 1235.36L2218.75 987.77L2166.39 861.06L2288.57 861.06L2310.36 931.19Q2323.31 894.03 2347.07 875.61Q2375.84 853.31 2411.4 853.31Q2448.89 853.31 2476.36 866.24Q2503.84 879.16 2521.94 904.38Q2540.04 929.59 2548.76 966.43Q2557.49 1003.28 2557.49 1050.47Q2557.49 1119.64 2530.66 1167.48Q2503.84 1215.32 2452.77 1234.39Q2401.7 1253.46 2329.3 1236ZM4229.85 1247.64L4220.15 1168.77Q4244.71 1165.54 4255.7 1159.72Q4266.69 1153.9 4269.93 1142.27Q4273.16 1130.63 4273.16 1109.95L4273.16 861.06L4489.07 861.06Q4521.39 861.06 4546.93 873.35Q4572.46 885.63 4587.33 912.46Q4602.2 939.28 4602.2 983.24L4602.2 1235.36L4484.55 1235.36L4484.55 976.78Q4484.55 961.91 4477.43 954.8Q4470.32 947.69 4455.46 947.69L4390.81 947.69L4390.81 1094.43Q4390.81 1150.02 4373.68 1181.7Q4356.55 1213.38 4320.99 1227.92Q4285.44 1242.47 4229.85 1247.64ZM3161.27 1235.36L3037.15 1235.36L2929.84 1065.34L2878.78 1235.36L2767.59 1235.36L2839.99 1013.62L2860.68 960.62L2800.56 861.06L2918.21 861.06L2966.69 941.22L3004.83 1000.7L3023.58 938.64L3042.33 861.06L3153.51 861.06L3073.36 1102.19ZM1951.77 1364.64L1797.92 861.06L1909.11 861.06L1957.6 1019.79L2026.76 861.06L2137.3 861.06L2001.67 1164.04L2062.96 1364.64ZM3706.23 1235.36L3706.23 1148.73L3868.48 1148.73L3868.48 976.78Q3868.48 961.91 3861.37 954.8Q3854.26 947.69 3839.39 947.69L3706.23 947.69L3706.23 861.06L3873.01 861.06Q3905.33 861.06 3930.87 873.35Q3956.4 885.63 3971.27 912.46Q3986.14 939.28 3986.14 983.24L3986.14 1148.73L4027.51 1148.73L4027.51 1235.36ZM3417.26 1235.36L3417.26 976.78Q3417.26 961.91 3410.15 954.8Q3403.04 947.69 3388.17 947.69L3209.76 947.69L3209.76 861.06L3421.79 861.06Q3454.11 861.06 3479.65 873.35Q3505.18 885.63 3520.05 912.46Q3534.92 939.28 3534.92 983.24L3534.92 1235.36ZM4652.62 1235.36L4652.62 1148.73L4737.31 1148.73L4737.31 978.07Q4737.31 957.38 4730.19 951.24Q4723.08 945.1 4710.16 943.81L4663.61 937.99L4677.83 852.66L4772.86 864.3Q4812.94 868.82 4833.95 899.2Q4854.96 929.59 4854.96 974.84L4854.96 1235.36ZM2611.15 1235.36L2611.15 936.7L2604.04 861.06L2721.04 861.06L2728.8 936.7L2728.8 1235.36ZM4076.64 1099.6L4076.64 1039.48L4076.64 936.7L4069.53 861.06L4186.53 861.06L4194.29 936.7L4194.29 1039.48L4193.65 1080.21ZM3204.58 1235.36L3204.58 1057.58L3220.75 1014.27L3322.24 1014.27L3322.24 1235.36Z"/><path fill="#F6EFE1" d="M4146.02 1700.83L4132.5 1584.64L4129.07 1558.11L4204.48 1558.11Q4228.8 1558.11 4241.94 1571.87Q4255.08 1585.62 4255.82 1609.21L4256.07 1617.31Q4256.8 1640.16 4249.31 1655.76Q4241.82 1671.35 4227.2 1680.93Q4212.59 1690.52 4191.95 1695.31Q4171.32 1700.1 4146.02 1700.83ZM3698.44 1698.62L3701.64 1672.09Q3719.81 1676.02 3729.89 1671.72Q3739.96 1667.42 3744.01 1655.88Q3748.06 1644.33 3747.82 1627.14Q3747.82 1611.66 3744.62 1602.08Q3741.43 1592.5 3735.41 1588.08Q3729.39 1583.66 3720.31 1583.66Q3713.67 1583.66 3708.27 1586.48Q3702.86 1589.31 3699.43 1594.34Q3696.31 1598.91 3695.21 1605.4L3695.25 1605.52L3680.02 1698.38L3644.65 1698.38L3661.59 1603.8L3641.94 1558.11L3678.79 1558.11L3688.52 1586.13Q3693.49 1571.57 3702.99 1564.37Q3714.16 1555.9 3727.67 1555.9Q3740.69 1555.9 3750.64 1560.2Q3760.59 1564.5 3767.47 1573.34Q3774.35 1582.18 3777.91 1595.69Q3781.47 1609.21 3781.47 1627.14Q3781.72 1654.16 3772.01 1672.34Q3762.31 1690.52 3743.64 1697.64Q3724.97 1704.76 3698.44 1698.62ZM3259.47 1700.83L3243.01 1558.11L3278.63 1558.11L3290.66 1669.39Q3303.93 1668.16 3313.02 1664.11Q3322.11 1660.05 3327.51 1653.54Q3332.92 1647.04 3335.25 1638.19Q3337.58 1629.35 3337.34 1618.29L3337.34 1610.68Q3337.34 1603.8 3334.88 1597.91Q3332.43 1592.01 3327.02 1587.96Q3321.62 1583.9 3313.26 1583.41L3301.23 1582.68L3303.93 1555.41L3318.91 1556.15Q3333.41 1556.88 3345.08 1562.53Q3356.74 1568.18 3363.99 1579.11Q3371.24 1590.04 3371.73 1606.99L3371.97 1613.87Q3372.71 1636.23 3365.22 1652.32Q3357.73 1668.41 3342.86 1678.72Q3328 1689.04 3306.88 1694.32Q3285.75 1699.6 3259.47 1700.83ZM4730.66 1707.71L4725.75 1680.2L4764.69 1672.81L4736.56 1558.11L4771.93 1558.11L4796.82 1665Q4799.67 1663.61 4802.02 1661.9Q4809.27 1656.62 4813.08 1647.89Q4816.88 1639.17 4818.23 1626.52Q4819.59 1613.87 4819.71 1596.92Q4819.83 1579.97 4819.83 1558.11L4854.96 1558.11Q4854.96 1582.18 4854.1 1601.96Q4853.24 1621.73 4849.92 1637.58Q4846.61 1653.42 4838.99 1665.34Q4831.38 1677.25 4817.87 1685.36Q4804.35 1693.46 4783.23 1697.64ZM3928.86 1698.38L3972.83 1584.64L3901.59 1584.64L3901.59 1558.11L3901.59 1522.25L3933.53 1522.25L3933.53 1558.11L4008.45 1558.11L4008.45 1587.34L3964.24 1698.38ZM3131.48 1698.62L3128.78 1672.09Q3136.64 1671.35 3142.78 1668.78Q3148.93 1666.2 3153.35 1661.16Q3157.77 1656.12 3160.22 1647.77Q3162.68 1639.42 3163.42 1627.38L3166.61 1584.64L3081.13 1584.64L3081.13 1558.11L3204.69 1558.11L3203.46 1580.96L3200.76 1618.05Q3200.02 1634.75 3195.97 1649.25Q3191.91 1663.74 3184.05 1674.79Q3176.19 1685.85 3163.3 1692.11Q3150.4 1698.38 3131.48 1698.62ZM4420.9 1698.38L4420.9 1613.38Q4420.9 1603.8 4422.74 1596.43Q4424.58 1589.06 4427.77 1584.64L4364.89 1584.64L4364.89 1558.11L4480.1 1558.11L4480.1 1584.64L4460.94 1584.64Q4458.24 1590.78 4457.25 1598.77Q4456.27 1606.75 4456.27 1613.38L4456.27 1698.38ZM3002.03 1698.38L3002.03 1602.57Q3002.03 1592.99 2997.73 1588.82Q2993.43 1584.64 2985.57 1584.64L2921.45 1584.64L2921.45 1558.11L2995.15 1558.11Q3007.43 1558.11 3017.01 1562.78Q3026.59 1567.44 3032.12 1577.52Q3037.65 1587.59 3037.65 1604.29L3037.65 1698.38ZM3481.78 1747.51L3481.78 1586.85L3478.83 1558.11L3514.21 1558.11L3517.15 1586.85L3517.15 1747.51ZM3825.69 1698.38L3825.69 1586.85L3822.74 1558.11L3858.11 1558.11L3861.06 1586.85L3861.06 1698.38ZM4050.95 1698.38L4050.95 1586.85L4048 1558.11L4083.37 1558.11L4086.32 1586.85L4086.32 1698.38ZM4655.49 1698.38L4655.49 1586.85L4652.54 1558.11L4687.92 1558.11L4690.87 1586.85L4690.87 1698.38ZM3565.05 1698.38L3565.05 1586.85L3562.11 1558.11L3597.48 1558.11L3600.43 1586.85L3600.43 1698.38ZM3079.16 1747.51L3079.16 1629.84L3084.07 1612.89L3114.78 1612.89L3114.78 1747.51ZM4167.85 1584.64L4176.97 1669.39Q4187.53 1668.41 4195.27 1666.07Q4203.01 1663.74 4208.16 1659.44Q4213.32 1655.14 4216.27 1649.12Q4219.22 1643.1 4220.32 1635Q4221.43 1626.89 4220.94 1616.57L4220.94 1609.21Q4220.94 1601.59 4218.6 1596.19Q4216.27 1590.78 4211.97 1587.71Q4207.67 1584.64 4201.78 1584.64L4167.85 1584.64ZM2919.98 1698.38L2919.98 1631.31L2924.89 1614.86L2955.6 1614.86L2955.6 1698.38ZM4539.3 1577.76L4521.37 1569.9L4542.98 1525.68L4565.58 1536ZM4582.04 1577.76L4564.36 1569.9L4585.73 1525.68L4608.33 1536Z"/></svg>